<?xml version="1.0" standalone="no"?>
<svg version="1.0" xmlns="http://www.w3.org/2000/svg"
 width="600.000000pt" height="554.000000pt" viewBox="0 0 600.000000 554.000000"
 preserveAspectRatio="xMidYMid meet">
<g transform="translate(0.000000,554.000000) scale(0.100000,-0.100000)"
fill="#ffffff" stroke="none">
<path d="M2619 5106 c-2 -2 -18 -6 -35 -9 -17 -3 -41 -10 -53 -16 -11 -7 -21
-9 -21 -5 0 4 -9 -1 -21 -12 -12 -10 -24 -18 -28 -18 -8 2 -34 -8 -46 -18 -65
-51 -96 -75 -111 -86 -11 -7 -13 -10 -5 -6 9 5 12 3 7 -4 -4 -7 -11 -12 -15
-12 -5 0 -26 -17 -47 -37 -21 -20 -32 -33 -24 -28 8 5 0 -9 -18 -31 -18 -21
-37 -44 -42 -51 -5 -7 -22 -38 -37 -70 -26 -54 -28 -67 -28 -183 1 -69 7 -156
14 -195 8 -38 15 -81 16 -95 1 -14 5 -39 9 -57 5 -28 4 -31 -11 -26 -10 4 -14
2 -10 -4 4 -6 0 -14 -9 -17 -10 -4 -13 -2 -8 7 5 9 4 9 -5 1 -19 -18 -25 -117
-11 -186 7 -35 14 -70 14 -78 1 -9 5 -20 8 -25 3 -6 8 -27 12 -48 11 -62 41
-121 70 -136 14 -8 26 -21 26 -28 0 -8 3 -12 8 -10 14 9 12 -65 -3 -86 -8 -12
-15 -17 -15 -12 0 6 -5 2 -11 -8 -6 -9 -15 -14 -21 -11 -6 4 -8 3 -5 -3 5 -8
-72 -65 -108 -79 -8 -3 -12 -11 -8 -17 4 -6 0 -8 -10 -4 -10 4 -18 0 -21 -11
-3 -9 -19 -26 -36 -37 -16 -11 -30 -23 -30 -27 0 -5 -5 -8 -11 -8 -5 0 -8 4
-4 9 3 5 1 12 -4 16 -6 3 -8 -3 -6 -14 4 -23 -79 -68 -140 -75 -41 -5 -158
-32 -185 -43 -8 -3 -18 -5 -22 -5 -20 4 -172 -78 -189 -102 -4 -4 -9 -2 -12 5
-4 11 -6 11 -7 -1 -1 -15 -82 -80 -100 -80 -5 0 -12 -5 -16 -12 -5 -7 -3 -8 7
-3 12 8 12 6 0 -8 -8 -10 -16 -15 -19 -12 -6 6 -52 -43 -52 -56 0 -6 -4 -8 -9
-4 -6 3 -15 -5 -22 -17 -7 -12 -18 -29 -26 -36 -7 -8 -11 -18 -8 -23 4 -5 1
-9 -5 -9 -6 0 -16 -11 -22 -25 -6 -14 -17 -24 -24 -21 -8 3 -16 0 -20 -6 -4
-7 -3 -8 4 -4 7 4 12 1 12 -9 0 -9 -5 -13 -10 -10 -6 4 -9 3 -8 -2 1 -4 -6
-22 -15 -40 -9 -18 -17 -42 -17 -55 0 -13 -9 -57 -21 -98 -11 -41 -23 -86 -25
-99 -3 -13 -10 -34 -17 -45 -6 -12 -10 -24 -10 -27 5 -15 -77 -91 -91 -86 -10
4 -13 1 -10 -7 3 -7 -3 -19 -13 -27 -17 -13 -17 -13 -3 6 14 19 14 19 -2 6
-10 -7 -16 -17 -13 -21 2 -4 -5 -16 -17 -26 -14 -12 -18 -14 -13 -4 5 8 -13
-7 -41 -33 -98 -96 -96 -94 -89 -72 3 11 -1 6 -9 -11 -8 -17 -42 -59 -76 -94
-33 -34 -58 -66 -54 -71 3 -5 0 -9 -6 -9 -5 0 -18 -16 -27 -35 -9 -19 -21 -31
-26 -28 -6 3 -7 2 -4 -4 4 -6 -1 -19 -9 -29 -9 -10 -12 -13 -8 -5 5 9 3 12 -4
7 -7 -4 -12 -13 -12 -19 0 -7 -33 -45 -74 -86 -51 -51 -78 -71 -88 -65 -10 6
-10 5 1 -9 12 -16 8 -22 -12 -18 -5 1 -6 -3 -2 -9 3 -5 2 -10 -3 -10 -12 0
-85 -99 -88 -119 -2 -8 -9 -18 -16 -22 -7 -5 -9 -9 -5 -9 5 0 -2 -15 -15 -32
-12 -18 -23 -37 -24 -43 -3 -29 -17 -54 -27 -48 -5 3 -7 1 -4 -4 4 -6 -2 -21
-12 -34 -26 -34 -51 -96 -51 -128 0 -26 40 43 158 274 39 76 65 110 172 220
70 72 150 165 179 209 68 101 167 205 313 327 100 85 121 108 147 161 35 70
69 187 78 262 5 41 19 68 79 152 124 171 289 304 448 361 23 7 91 25 152 37
128 28 241 79 294 136 19 20 58 52 85 70 28 18 74 53 103 77 34 30 53 40 56
31 42 -143 88 -223 165 -288 42 -36 51 -49 51 -76 0 -49 38 -260 60 -330 43
-140 109 -224 270 -343 128 -95 200 -109 307 -59 52 25 144 111 190 178 47 70
297 510 315 556 55 137 75 517 34 616 -6 14 6 12 81 -11 48 -15 187 -52 308
-81 121 -29 238 -61 261 -71 22 -11 47 -19 55 -19 8 0 32 -12 54 -25 22 -14
54 -25 70 -25 19 0 44 -11 65 -28 29 -24 118 -65 180 -84 8 -3 -9 -8 -39 -11
-63 -8 -178 -44 -187 -59 -8 -12 0 -10 91 23 46 17 89 23 187 27 194 7 312
-28 435 -126 94 -76 101 -84 93 -112 l-6 -25 -8 23 c-4 13 -19 27 -32 32 -53
20 -51 3 16 -135 63 -131 66 -134 98 -134 38 -1 39 3 11 49 -18 32 -16 30 23
-12 24 -26 55 -50 71 -54 32 -7 34 2 8 30 -57 65 -121 160 -121 182 0 33 11
22 72 -71 26 -38 60 -83 77 -99 28 -27 31 -35 31 -93 0 -75 28 -155 72 -199
16 -18 40 -54 53 -81 12 -27 36 -65 54 -85 38 -44 39 -49 1 -41 -34 6 -35 5
-15 -43 8 -19 10 -32 5 -29 -18 11 -10 -6 22 -46 17 -21 33 -37 35 -35 3 2
-10 32 -27 66 -30 60 -36 86 -14 72 10 -6 99 -195 111 -234 11 -35 -32 -6 -65
44 -18 27 -36 48 -39 45 -3 -3 11 -30 31 -60 28 -42 43 -56 66 -59 17 -3 32
-3 34 0 4 3 -49 125 -96 219 -12 24 -18 46 -15 50 20 19 111 -148 175 -322 7
-18 13 -141 15 -315 4 -255 6 -292 25 -355 l22 -70 -5 85 c-2 47 -7 96 -10
110 -5 19 -4 22 4 10 6 -8 11 -10 11 -4 0 5 -4 14 -9 20 -5 5 -12 124 -14 264
-4 255 -4 255 -33 315 -15 33 -27 66 -25 73 1 7 -7 24 -18 39 -12 14 -21 31
-21 37 0 15 -53 88 -97 136 -18 19 -36 42 -39 52 -3 10 -10 18 -15 18 -6 0 -7
5 -4 10 3 6 1 10 -6 10 -7 0 -9 3 -6 6 3 4 -3 18 -13 32 -11 13 -20 32 -20 41
0 9 -10 27 -23 41 -12 14 -18 20 -13 13 5 -8 5 -13 -1 -13 -11 0 -54 86 -60
120 -3 14 -5 49 -6 78 -2 45 -7 57 -40 92 -21 23 -35 46 -31 52 4 6 3 8 -3 5
-8 -5 -73 82 -73 98 0 3 -9 15 -20 27 -11 12 -20 19 -20 15 0 -4 -14 6 -31 23
-18 16 -37 30 -42 30 -6 0 -8 3 -4 6 7 8 -24 44 -39 44 -6 0 -30 19 -53 41
-22 23 -41 37 -41 33 0 -5 -4 -4 -8 1 -11 15 -68 45 -87 45 -9 0 -13 5 -9 11
4 8 -1 9 -16 4 -13 -4 -20 -3 -17 2 4 5 1 10 -6 11 -7 1 -34 6 -62 13 -27 6
-88 12 -135 13 -47 1 -95 7 -107 14 -13 7 -23 9 -23 5 0 -4 -5 -2 -12 5 -7 7
-22 12 -34 12 -12 0 -27 7 -34 15 -7 8 -18 15 -25 15 -6 0 -20 9 -30 20 -10
11 -20 18 -23 16 -2 -3 -11 2 -20 10 -8 9 -25 14 -38 11 -13 -2 -21 -1 -19 3
3 5 -2 11 -11 14 -9 3 -12 2 -9 -4 4 -6 -10 1 -31 15 -20 14 -47 25 -60 25
-12 0 -29 6 -36 14 -18 17 -41 24 -103 32 -27 3 -63 11 -80 18 -30 13 -111 34
-157 41 -87 14 -256 63 -264 77 -3 4 -11 8 -17 8 -7 0 -6 -4 3 -10 8 -5 11
-10 6 -10 -5 0 -17 7 -27 16 -9 8 -29 17 -43 18 -28 3 -60 33 -94 87 -12 19
-33 46 -47 62 -23 24 -27 37 -30 115 -2 48 -6 98 -8 111 -4 26 -50 71 -73 71
-11 0 -14 24 -14 138 0 75 -5 164 -11 197 -5 33 -11 69 -13 80 -1 11 -8 30
-15 43 -6 12 -9 22 -6 22 3 0 -1 10 -10 23 -8 13 -12 27 -8 32 5 4 2 5 -4 1
-8 -4 -17 2 -25 18 -6 14 -15 26 -20 26 -5 0 -6 5 -3 10 3 6 0 10 -7 10 -18 1
-89 56 -82 63 4 3 -5 9 -20 13 -14 3 -26 9 -26 13 0 4 -16 13 -35 21 -24 9
-31 16 -23 22 9 5 8 8 -4 8 -10 0 -19 -1 -21 -2 -2 -2 -15 5 -31 15 -15 10
-34 16 -41 13 -8 -3 -15 -1 -17 4 -6 17 -164 52 -249 56 -47 2 -88 2 -90 0z
m201 -41 c151 -32 320 -119 413 -211 94 -95 119 -194 121 -489 1 -165 1 -171
-22 -196 -20 -23 -21 -27 -7 -33 9 -3 14 -2 11 3 -3 4 1 17 9 27 13 18 13 17
11 -8 -2 -15 -9 -34 -15 -42 -9 -11 -8 -28 5 -78 13 -49 15 -86 9 -173 -14
-236 -35 -376 -68 -440 -18 -37 -151 -220 -166 -229 -3 -2 -6 38 -5 89 1 52
-3 100 -7 107 -8 12 -13 -9 -12 -49 1 -7 -3 -10 -8 -7 -12 7 -11 -3 2 -28 8
-15 8 -19 0 -14 -11 7 -15 -10 -12 -54 1 -20 -1 -22 -9 -10 -8 13 -10 13 -10
-2 0 -11 -6 -16 -20 -13 -11 2 -23 -1 -26 -7 -4 -7 -2 -8 4 -4 16 10 15 -11 0
-28 -11 -11 -15 -11 -26 3 -12 14 -13 14 -7 -4 6 -18 4 -18 -18 3 -23 22 -51
32 -30 11 6 -6 9 -19 6 -28 -4 -14 -3 -14 6 -1 9 12 10 8 5 -15 -4 -16 -12
-33 -18 -37 -8 -5 -7 -8 2 -8 7 0 15 7 18 15 5 13 35 28 60 29 12 1 45 32 39
38 -2 2 4 4 14 4 23 0 20 -34 -5 -54 -16 -12 -16 -14 -1 -9 12 5 17 1 17 -13
0 -23 -88 -92 -108 -85 -7 3 -10 1 -7 -5 7 -11 -25 -29 -41 -23 -15 5 -58 -43
-45 -52 16 -10 13 -23 -6 -28 -14 -4 -12 -5 5 -6 12 0 22 4 22 9 0 6 9 10 20
10 10 0 24 8 29 18 12 23 91 67 91 51 0 -8 3 -9 13 0 8 6 16 9 19 6 2 -3 11 7
19 22 11 21 12 27 1 31 -10 3 -10 8 2 21 9 9 18 35 22 56 4 27 23 61 58 105
138 174 153 207 174 386 11 92 20 134 29 134 26 0 51 42 57 98 4 31 9 76 12
98 l6 42 32 -37 c74 -84 96 -120 111 -182 20 -86 19 -215 -3 -322 -10 -48 -14
-83 -10 -79 31 31 50 296 28 387 -13 55 -13 57 10 45 10 -6 25 -29 32 -53 18
-61 14 -311 -6 -430 -27 -164 -22 -153 -285 -605 -149 -256 -296 -349 -445
-284 -102 45 -284 211 -325 295 -26 53 -71 211 -70 242 0 11 13 -25 28 -80 36
-132 58 -179 115 -242 64 -71 190 -171 251 -199 93 -44 181 -25 269 56 71 66
117 132 239 345 63 110 124 216 135 236 57 94 91 268 93 469 1 135 -5 202 -23
230 -7 11 -7 8 -3 -10 4 -14 9 -86 12 -161 8 -210 -22 -392 -81 -504 -62 -115
-266 -466 -286 -493 -85 -110 -187 -182 -260 -182 -52 0 -145 49 -237 126 -89
75 -144 141 -173 207 -27 60 -71 241 -73 298 -1 26 -6 45 -10 42 -5 -3 -6 -30
-3 -61 5 -56 5 -56 -9 13 -16 82 -18 118 -6 111 4 -3 7 -18 5 -33 -4 -27 -3
-27 4 -3 l8 25 12 -22 c7 -12 11 -40 10 -64 -1 -30 4 -45 16 -55 10 -7 15 -17
12 -23 -4 -5 4 -17 16 -25 12 -9 18 -16 13 -16 -6 0 1 -9 15 -20 26 -20 45
-26 36 -11 -3 5 0 11 7 14 8 3 21 -7 31 -24 20 -34 61 -40 69 -11 4 17 47 39
45 23 -2 -20 4 -30 17 -25 8 4 12 10 9 15 -3 5 1 6 9 3 8 -3 20 2 27 11 8 10
9 15 1 15 -6 0 -11 5 -11 11 0 5 4 8 9 4 5 -3 12 -1 16 5 9 14 -15 12 -45 -3
-21 -11 -29 -11 -46 0 -18 11 -24 12 -35 1 -15 -15 -33 -17 -44 -6 -4 4 -14 4
-23 1 -11 -5 -13 -3 -7 7 6 9 4 12 -7 8 -8 -4 -20 2 -27 13 -6 11 -15 17 -20
15 -13 -8 -39 26 -45 59 -3 17 -8 40 -10 52 -3 13 -1 25 5 28 5 4 9 -1 9 -10
0 -9 12 -18 30 -21 17 -4 30 -10 30 -15 0 -5 5 -9 11 -9 5 0 7 4 4 10 -3 5 0
7 9 4 8 -3 17 -12 20 -19 3 -9 16 -12 36 -10 17 2 28 0 25 -5 -3 -5 5 -7 17
-4 13 2 34 6 46 9 13 2 31 10 39 17 12 10 17 10 20 1 3 -7 15 -4 38 10 31 20
42 41 20 37 -5 -1 -13 9 -18 22 -10 24 -11 22 -22 -27 -6 -29 -7 -29 -21 -11
-8 11 -14 16 -14 12 0 -5 -6 -3 -14 3 -12 10 -14 8 -10 -11 5 -22 5 -22 -10 2
-12 20 -15 22 -16 7 0 -10 4 -26 9 -36 7 -13 5 -17 -8 -17 -13 0 -16 7 -14 31
2 16 0 24 -3 18 -8 -19 -32 -16 -37 5 -4 13 -5 12 -6 -5 0 -12 7 -27 17 -32
11 -7 12 -11 4 -11 -14 0 -38 20 -39 33 -3 22 -10 28 -25 22 -10 -4 -15 -14
-12 -23 3 -9 -1 -7 -7 5 -11 21 -13 22 -25 5 -8 -10 -13 -12 -14 -4 0 6 -9 12
-19 12 -15 0 -18 5 -14 23 4 18 3 19 -7 7 -9 -12 -10 -9 -6 15 6 27 5 28 -7
13 -14 -18 -33 -25 -23 -9 3 5 -1 22 -9 37 -9 19 -11 32 -5 38 14 14 12 27 -2
24 -7 -2 -15 12 -18 32 -3 23 -8 31 -13 23 -5 -7 -6 -17 -2 -22 3 -5 1 -12 -5
-16 -6 -4 -8 -10 -5 -15 3 -5 10 -32 15 -61 6 -29 16 -56 22 -60 7 -5 10 -10
7 -13 -7 -7 -161 141 -194 186 -57 79 -156 435 -161 578 -1 47 2 90 7 97 11
12 1 88 -9 78 -4 -3 -5 -22 -3 -41 1 -20 -2 -34 -9 -34 -6 0 -9 4 -6 9 3 5 -1
12 -10 15 -10 4 -13 13 -9 27 5 15 4 19 -4 15 -6 -4 -11 -22 -11 -39 0 -24 3
-28 10 -17 8 13 10 13 10 -2 0 -11 -7 -16 -20 -15 -12 1 -18 7 -16 14 3 7 1
13 -4 13 -6 0 -10 -12 -10 -26 0 -21 4 -24 20 -19 17 5 20 2 20 -24 0 -17 9
-54 20 -83 25 -65 25 -74 3 -57 -17 13 -17 12 0 -7 25 -30 59 -154 41 -154
-20 0 -43 28 -54 68 -5 20 -20 71 -32 112 -15 51 -22 103 -22 165 l-1 90 39
-2 c37 -3 38 -2 31 24 -3 15 -18 94 -31 177 -33 198 -31 316 8 396 75 153 288
336 430 370 55 13 163 11 238 -5z m614 -850 c18 -41 15 -153 -7 -307 -17 -118
-19 -124 -44 -130 -17 -4 -18 4 -14 108 2 78 -1 127 -11 162 -12 39 -13 54 -3
73 18 36 27 101 12 93 -7 -4 -3 2 7 14 27 31 43 27 60 -13z m-1258 -242 c-11
-11 -19 6 -11 24 8 17 8 17 12 0 3 -10 2 -21 -1 -24z m8 -19 c-6 -3 -9 -17 -7
-32 3 -26 3 -26 -7 -4 -11 26 -6 42 13 41 8 0 8 -2 1 -5z m3088 -771 c9 -10
25 -36 37 -58 l22 -40 -4 52 c-4 48 -3 51 15 42 12 -7 18 -21 18 -46 0 -28 11
-49 53 -102 63 -79 71 -91 58 -91 -5 0 -32 27 -60 61 -40 47 -51 56 -51 39 0
-11 7 -34 15 -50 14 -28 14 -30 -2 -30 -13 0 -34 33 -73 111 -30 60 -56 114
-58 120 -6 15 14 10 30 -8z m-2198 -158 c-23 -18 -31 -18 -40 -3 -4 7 -3 8 4
4 7 -4 12 -2 12 4 0 6 4 9 9 5 5 -3 13 0 16 6 4 5 10 8 13 5 3 -4 -3 -13 -14
-21z m-449 -35 c-3 -5 -2 -10 3 -10 6 0 12 -6 15 -14 4 -10 0 -14 -12 -13 -11
1 -17 8 -15 21 3 26 3 26 10 26 3 0 2 -4 -1 -10z m365 6 c0 -3 -4 -8 -10 -11
-5 -3 -10 -1 -10 4 0 6 5 11 10 11 6 0 10 -2 10 -4z m-53 -41 c0 -8 -9 -15
-19 -15 -20 0 -21 1 -12 24 7 18 31 11 31 -9z m-147 -2 c0 -3 -5 -3 -12 -1 -7
3 -25 -8 -40 -24 -15 -15 -31 -28 -35 -28 -4 0 8 15 26 34 19 19 40 32 47 29
8 -3 14 -7 14 -10z"/>
<path d="M2696 4729 c-111 -9 -257 -44 -374 -89 -119 -46 -116 -42 -121 -156
-2 -63 -8 -106 -17 -119 -16 -22 -17 -101 -4 -180 6 -37 7 -25 4 46 -4 73 -2
104 9 125 8 16 17 71 19 122 3 52 10 98 15 103 15 15 143 65 225 88 217 60
474 68 679 20 51 -12 56 -20 79 -148 8 -43 18 -62 45 -87 19 -17 35 -36 35
-40 0 -19 21 -190 26 -213 3 -13 7 -21 9 -19 8 7 -23 236 -34 256 -6 11 -21
26 -33 34 -18 12 -27 34 -41 106 -11 52 -26 97 -35 105 -10 8 -40 20 -69 26
-46 9 -90 13 -268 25 -27 2 -95 -1 -149 -5z"/>
<path d="M2860 4570 c0 -5 7 -7 15 -4 8 4 15 8 15 10 0 2 -7 4 -15 4 -8 0 -15
-4 -15 -10z"/>
<path d="M2863 4473 c9 -2 25 -2 35 0 9 3 1 5 -18 5 -19 0 -27 -2 -17 -5z"/>
<path d="M3065 4325 c-22 -8 -47 -15 -55 -15 -8 0 -28 -7 -44 -15 -35 -18 -39
-19 -30 -2 6 9 4 9 -8 -1 -9 -7 -21 -11 -28 -10 -7 2 -16 -7 -20 -18 -8 -20
-5 -21 28 -20 20 2 42 -2 49 -7 8 -5 30 -3 60 7 26 9 80 17 120 18 61 3 71 6
70 21 -1 9 -6 17 -11 17 -5 0 -6 3 -3 7 12 11 -27 32 -58 32 -16 0 -48 -6 -70
-14z m95 -29 c0 -10 -30 0 -34 11 -4 11 -1 11 14 3 11 -6 20 -12 20 -14z m-45
4 c3 -5 1 -10 -4 -10 -6 0 -11 5 -11 10 0 6 2 10 4 10 3 0 8 -4 11 -10z m-30
-10 c-3 -5 -10 -10 -16 -10 -5 0 -9 5 -9 10 0 6 7 10 16 10 8 0 12 -4 9 -10z
m-150 -19 c3 -5 2 -12 -3 -15 -5 -3 -9 1 -9 9 0 17 3 19 12 6z m75 5 c0 -2 -7
-7 -16 -10 -8 -3 -12 -2 -9 4 6 10 25 14 25 6z"/>
<path d="M2274 4236 c-27 -19 -39 -79 -15 -72 21 6 132 15 202 18 56 1 63 7
45 37 -6 9 -5 12 0 8 6 -3 16 -2 22 2 7 4 -21 8 -63 9 -42 0 -97 3 -123 7 -34
4 -53 2 -68 -9z m60 -18 c-5 -8 -2 -9 10 -5 9 4 15 3 11 -2 -5 -9 -65 -12 -65
-4 0 3 36 20 48 22 2 1 0 -4 -4 -11z m166 -22 c-7 -7 -13 -7 -20 0 -6 6 -3 10
10 10 13 0 16 -4 10 -10z"/>
<path d="M2970 4214 c-96 -17 -158 -41 -170 -65 -14 -25 4 -25 28 -1 10 10 24
16 32 14 7 -3 10 -1 7 4 -3 5 8 9 23 10 15 1 36 5 46 9 11 4 30 7 43 6 13 -2
21 1 18 6 -9 14 258 10 275 -4 8 -7 18 -10 21 -6 4 3 7 1 7 -5 0 -7 -8 -12
-18 -12 -25 0 -31 -7 -25 -31 4 -15 11 -18 26 -13 20 6 21 6 4 -19 -22 -34
-21 -47 2 -47 17 0 19 -5 14 -37 -3 -21 -13 -46 -23 -57 -44 -46 -306 -84
-366 -53 -26 14 -84 76 -84 90 0 3 9 3 20 0 14 -4 20 0 20 10 0 22 -18 31 -35
17 -13 -11 -15 -7 -15 19 0 22 5 31 16 31 9 0 14 7 12 17 -3 15 -14 17 -81 15
-42 -2 -90 -7 -107 -12 -24 -7 -30 -5 -35 11 -4 10 -16 24 -28 31 -29 16 -224
15 -302 -2 -33 -7 -70 -13 -82 -14 -13 0 -23 -4 -23 -8 0 -15 39 -17 76 -4 21
7 79 14 128 15 49 1 91 3 95 3 21 6 111 -15 121 -27 11 -13 10 -14 -4 -9 -9 4
-18 0 -21 -8 -5 -12 -14 -11 -52 9 -67 33 -168 28 -229 -12 -37 -24 -23 -29
17 -6 72 42 189 36 242 -13 20 -19 27 -21 31 -9 4 9 2 11 -6 7 -7 -4 -8 -3 -4
5 4 6 12 9 17 5 5 -3 7 -10 4 -15 -4 -5 1 -9 9 -9 23 0 19 -37 -4 -43 -24 -6
-27 -37 -4 -37 12 0 14 -7 9 -32 -12 -55 -23 -67 -78 -83 -101 -31 -318 -32
-301 -2 4 8 2 7 -7 -1 -12 -11 -12 -14 1 -23 20 -14 265 -5 310 11 44 16 80
48 80 72 0 10 6 18 14 18 8 0 17 3 19 8 10 15 19 102 11 102 -5 0 -10 -19 -11
-41 0 -23 -6 -46 -11 -51 -13 -13 -4 102 9 116 4 5 39 11 78 14 l70 5 6 -29
c15 -64 14 -67 -5 -29 -11 23 -17 29 -14 15 11 -41 34 -81 52 -87 9 -4 32 -20
51 -36 l35 -30 110 6 c118 6 232 35 261 67 15 17 29 140 15 140 -3 0 -5 15 -3
33 4 50 -4 73 -32 85 -34 16 -210 13 -305 -4z m127 0 c-3 -3 -12 -4 -19 -1 -8
3 -5 6 6 6 11 1 17 -2 13 -5z m-347 -124 c-47 -5 -96 -11 -110 -14 -14 -3 -9
0 10 8 21 9 66 14 110 14 l75 -1 -85 -7z m91 -117 c13 -16 12 -17 -3 -4 -17
13 -22 21 -14 21 2 0 10 -8 17 -17z"/>
<path d="M3010 4184 c-8 -3 -31 -14 -52 -24 -20 -10 -39 -16 -44 -12 -4 4 -4
2 -1 -4 4 -6 -5 -22 -18 -34 -14 -13 -25 -31 -25 -39 0 -9 9 -3 23 16 52 75
150 108 234 80 52 -17 68 -15 33 3 -25 14 -127 23 -150 14z"/>
<path d="M2995 4140 c-26 -11 -105 -79 -105 -91 0 -5 28 -9 62 -9 46 0 59 3
51 11 -6 6 -30 10 -52 7 l-40 -3 26 27 c33 34 36 34 53 3 17 -31 43 -40 70
-23 16 10 20 21 18 46 -2 17 0 32 4 32 14 0 81 -30 77 -34 -2 -3 -24 -16 -49
-30 -25 -14 -39 -26 -32 -26 20 0 65 25 86 49 19 21 19 21 -17 36 -39 16 -119
19 -152 5z m45 -30 c0 -5 -4 -10 -10 -10 -5 0 -10 5 -10 10 0 6 5 10 10 10 6
0 10 -4 10 -10z"/>
<path d="M2399 4080 c-25 -3 -54 -13 -63 -23 -10 -9 -22 -17 -27 -17 -5 0 -9
-3 -9 -7 0 -13 77 -46 92 -40 8 3 5 6 -8 6 -11 1 -28 7 -38 14 -17 13 -17 15
10 36 l29 23 3 -24 c7 -46 30 -59 95 -53 91 8 110 14 95 32 -32 39 -109 62
-179 53z m47 -37 c-10 -10 -19 5 -10 18 6 11 8 11 12 0 2 -7 1 -15 -2 -18z
m94 -2 l25 -19 -30 -7 c-17 -4 -38 -9 -47 -11 -15 -4 -15 -1 -5 26 13 35 23
37 57 11z"/>
<path d="M2240 4076 c0 -2 8 -10 18 -17 15 -13 16 -12 3 4 -13 16 -21 21 -21
13z"/>
<path d="M2975 4005 c28 -7 64 -13 80 -13 l30 0 -27 8 c-15 4 -51 10 -80 13
l-53 6 50 -14z"/>
<path d="M2475 3959 c-22 -11 -29 -17 -15 -13 14 3 34 7 46 8 11 0 21 7 21 14
0 15 -3 15 -52 -9z"/>
<path d="M2856 3775 c8 -50 14 -58 14 -19 0 16 -5 36 -11 44 -7 11 -8 4 -3
-25z"/>
<path d="M2934 3779 c29 -34 34 -80 12 -98 -8 -7 -27 -16 -43 -21 l-28 -8 26
-1 c35 -1 69 33 69 70 0 32 -33 89 -52 89 -5 0 2 -14 16 -31z"/>
<path d="M2575 3760 c-37 -71 -4 -141 66 -139 l34 1 -39 9 c-64 15 -80 53 -51
123 18 43 12 48 -10 6z"/>
<path d="M2657 3773 c-12 -11 -8 -38 8 -59 13 -18 14 -17 6 11 -4 17 -6 36 -4
43 5 13 0 16 -10 5z"/>
<path d="M3243 3652 c-47 -79 -62 -115 -76 -180 -3 -12 -2 -20 3 -17 4 3 11
22 15 42 3 21 31 82 62 136 31 54 54 99 52 102 -2 2 -27 -36 -56 -83z"/>
<path d="M3425 3721 c-3 -5 -2 -12 3 -15 5 -3 9 1 9 9 0 17 -3 19 -12 6z"/>
<path d="M2864 3693 c-12 -2 -32 -15 -45 -29 -26 -28 -73 -32 -103 -9 -23 17
-72 20 -81 5 -4 -6 10 -10 34 -10 22 0 43 -4 46 -10 13 -20 86 -11 117 15 16
14 40 25 54 25 13 0 24 5 24 10 0 10 -8 11 -46 3z"/>
<path d="M2275 3650 c50 -64 135 -151 135 -139 0 2 -37 42 -81 89 -45 47 -69
69 -54 50z"/>
<path d="M3000 3615 c0 -2 6 -8 13 -14 10 -8 14 -7 14 2 0 8 -6 14 -14 14 -7
0 -13 -1 -13 -2z"/>
<path d="M2802 3579 c2 -31 23 -46 32 -23 6 16 26 19 26 3 0 -5 -4 -7 -10 -4
-5 3 -10 2 -10 -4 0 -5 9 -9 20 -8 13 1 19 6 15 16 -4 11 -3 12 10 1 8 -7 15
-9 15 -5 0 4 6 3 13 -3 6 -6 15 -11 20 -11 4 -1 8 -1 10 -2 1 0 11 -2 22 -4
11 -2 30 -6 43 -9 12 -3 30 -8 41 -10 29 -7 60 -29 65 -46 2 -8 4 -3 5 11 1
29 -28 61 -62 67 -29 5 -51 10 -54 12 -2 2 -11 3 -20 4 -10 1 -28 7 -40 14
-19 10 -23 10 -23 0 0 -10 -2 -10 -8 -1 -4 7 -19 15 -32 17 -14 2 -25 5 -25 6
0 1 -12 3 -28 4 -24 3 -27 0 -25 -25z"/>
<path d="M2713 3586 c-13 -6 -23 -15 -23 -21 0 -5 -5 -3 -10 5 -8 13 -10 13
-10 -2 0 -9 -5 -20 -12 -24 -7 -5 -8 -3 -3 5 4 8 -2 7 -17 -3 -14 -9 -28 -13
-31 -9 -4 3 -7 1 -7 -5 0 -7 -4 -12 -9 -12 -5 0 -22 -5 -38 -12 -15 -6 -31
-11 -35 -10 -9 2 -41 -58 -35 -65 5 -4 16 1 82 42 17 11 35 20 40 21 6 1 24 8
40 15 17 6 35 13 40 14 6 2 17 4 25 6 8 2 18 9 23 14 4 6 10 5 16 -3 7 -11 9
-11 14 2 3 8 -2 23 -11 34 -14 15 -21 17 -39 8z"/>
<path d="M3155 3560 c3 -5 8 -10 11 -10 2 0 4 5 4 10 0 6 -5 10 -11 10 -5 0
-7 -4 -4 -10z"/>
<path d="M2804 3509 c-4 -7 -22 -9 -50 -4 -49 7 -116 -18 -191 -70 l-38 -27
85 7 c47 4 117 11 155 16 39 4 117 13 175 19 58 6 112 14 120 17 8 3 -21 16
-64 29 -84 25 -180 32 -192 13z m181 -23 l40 -15 -45 0 c-25 -1 -72 -6 -105
-12 -33 -6 -82 -13 -110 -14 -27 -2 -83 -8 -124 -14 -41 -6 -76 -10 -78 -8 -2
2 32 20 74 39 59 27 87 35 115 31 20 -3 45 0 55 6 23 15 124 7 178 -13z"/>
<path d="M2440 3472 c0 -20 41 -122 50 -122 4 0 -4 28 -17 63 -27 66 -33 77
-33 59z"/>
<path d="M3247 3449 c7 -7 15 -10 18 -7 3 3 -2 9 -12 12 -14 6 -15 5 -6 -5z"/>
<path d="M2981 3404 c-53 -45 -113 -64 -213 -65 -66 -1 -85 3 -124 25 -26 15
-49 24 -52 22 -7 -7 59 -45 101 -58 20 -6 37 -15 37 -20 0 -4 7 -8 15 -8 8 0
15 -4 15 -10 0 -12 22 -9 32 5 5 6 8 3 8 -7 0 -10 -11 -19 -30 -23 -16 -4 -30
-10 -30 -15 0 -5 15 -4 32 1 18 5 48 9 65 9 18 0 33 4 33 9 0 5 -10 7 -21 4
-16 -4 -20 -2 -17 8 3 8 13 14 24 14 10 0 23 10 29 23 5 12 24 27 40 32 17 6
49 28 70 50 49 50 42 52 -14 4z"/>
<path d="M3046 3371 c-4 -5 -2 -12 3 -15 5 -4 12 -2 15 3 4 5 2 12 -3 15 -5 4
-12 2 -15 -3z"/>
<path d="M3234 3238 c-4 -7 -4 -10 1 -6 4 4 15 2 24 -5 14 -11 14 -10 2 6 -16
20 -18 21 -27 5z"/>
<path d="M2866 3145 c4 -8 8 -15 10 -15 2 0 4 7 4 15 0 8 -4 15 -10 15 -5 0
-7 -7 -4 -15z"/>
<path d="M3045 3101 c-3 -5 0 -13 6 -17 7 -4 9 -3 5 4 -3 5 0 13 6 15 9 4 10
6 1 6 -6 1 -14 -3 -18 -8z"/>
<path d="M3446 3027 c3 -10 9 -15 12 -12 3 3 0 11 -7 18 -10 9 -11 8 -5 -6z"/>
<path d="M3279 2963 c-13 -16 -12 -17 4 -4 16 13 21 21 13 21 -2 0 -10 -8 -17
-17z"/>
<path d="M3310 2932 c-41 -26 -109 -80 -152 -119 -43 -40 -82 -73 -88 -73 -5
0 -10 -5 -10 -10 0 -19 42 10 110 74 36 34 102 86 148 115 45 30 82 55 82 57
0 9 -19 -1 -90 -44z"/>
<path d="M2765 2910 c-3 -5 -2 -10 4 -10 5 0 13 5 16 10 3 6 2 10 -4 10 -5 0
-13 -4 -16 -10z"/>
<path d="M3126 2887 c3 -10 9 -15 12 -12 3 3 0 11 -7 18 -10 9 -11 8 -5 -6z"/>
<path d="M2600 2866 c0 -3 42 -26 93 -51 50 -26 107 -56 125 -67 17 -11 37
-18 43 -16 7 2 -47 34 -119 71 -125 65 -142 72 -142 63z"/>
<path d="M2615 2821 c-3 -5 -2 -12 3 -15 5 -3 9 1 9 9 0 17 -3 19 -12 6z"/>
<path d="M2645 2771 c-3 -5 -2 -12 3 -15 5 -3 9 1 9 9 0 17 -3 19 -12 6z"/>
<path d="M3045 2690 c3 -5 8 -10 11 -10 2 0 4 5 4 10 0 6 -5 10 -11 10 -5 0
-7 -4 -4 -10z"/>
<path d="M3080 2690 c-9 -6 -10 -10 -3 -10 6 0 15 5 18 10 8 12 4 12 -15 0z"/>
<path d="M3227 2649 c7 -7 15 -10 18 -7 3 3 -2 9 -12 12 -14 6 -15 5 -6 -5z"/>
<path d="M3129 2553 c-13 -16 -12 -17 4 -4 16 13 21 21 13 21 -2 0 -10 -8 -17
-17z"/>
<path d="M3395 4169 c-32 -50 -40 -69 -28 -69 5 0 15 17 23 37 11 32 14 35 20
18 6 -16 8 -12 12 18 2 20 3 37 1 37 -1 0 -14 -18 -28 -41z"/>
<path d="M3431 4124 c0 -11 3 -14 6 -6 3 7 2 16 -1 19 -3 4 -6 -2 -5 -13z"/>
<path d="M3360 4084 c0 -6 7 -29 16 -50 11 -26 14 -52 9 -83 l-6 -46 20 33
c23 36 26 46 11 37 -5 -3 -10 3 -10 13 0 21 -39 115 -40 96z"/>
<path d="M4497 3482 c-15 -16 -15 -19 -2 -19 8 0 13 3 10 5 -3 3 0 11 6 19 17
20 5 16 -14 -5z"/>
<path d="M4526 3482 c-3 -5 1 -9 9 -9 8 0 12 4 9 9 -3 4 -7 8 -9 8 -2 0 -6 -4
-9 -8z"/>
<path d="M4180 3370 c-9 -6 -10 -10 -3 -10 6 0 15 5 18 10 8 12 4 12 -15 0z"/>
<path d="M4187 3326 c-112 -47 -185 -110 -244 -214 -34 -59 -79 -180 -70 -188
3 -3 15 24 26 59 61 183 191 311 357 351 50 12 54 14 24 15 -19 0 -61 -10 -93
-23z"/>
<path d="M5040 3336 c0 -3 9 -10 20 -16 11 -6 20 -8 20 -6 0 3 -9 10 -20 16
-11 6 -20 8 -20 6z"/>
<path d="M4485 3320 c-3 -6 1 -7 9 -4 18 7 21 14 7 14 -6 0 -13 -4 -16 -10z"/>
<path d="M2330 3265 c0 -2 6 -8 13 -14 10 -8 14 -7 14 2 0 8 -6 14 -14 14 -7
0 -13 -1 -13 -2z"/>
<path d="M2323 3235 c0 -8 4 -12 9 -9 5 3 6 10 3 15 -9 13 -12 11 -12 -6z"/>
<path d="M3903 3214 c8 -9 -49 -41 -187 -107 -59 -28 -104 -53 -99 -54 26 -9
308 141 297 158 -3 5 -8 9 -11 9 -4 0 -3 -3 0 -6z"/>
<path d="M5090 3208 c-39 -21 -37 -57 10 -146 53 -103 79 -127 135 -127 29 0
50 6 62 17 16 17 16 21 2 60 -14 39 -19 43 -53 46 -35 3 -37 2 -27 -17 14 -25
14 -41 1 -41 -13 0 -82 138 -77 153 2 6 12 -1 21 -16 13 -19 27 -27 47 -27 42
0 43 14 1 59 -41 46 -83 59 -122 39z m101 -37 c31 -32 37 -51 16 -51 -8 0 -19
11 -25 25 -8 17 -20 25 -37 25 -33 0 -32 -16 6 -93 38 -76 56 -97 82 -97 16 0
19 5 14 30 -5 25 -3 30 12 30 29 0 40 -59 15 -77 -21 -16 -77 -11 -101 8 -20
17 -93 164 -93 187 0 49 66 57 111 13z"/>
<path d="M2113 3173 c0 -7 3 -11 5 -8 11 11 103 -50 126 -84 14 -20 32 -63 40
-96 8 -33 15 -48 15 -34 2 48 -29 126 -62 159 -40 40 -124 83 -124 63z"/>
<path d="M2426 3182 c-3 -5 1 -9 9 -9 8 0 12 4 9 9 -3 4 -7 8 -9 8 -2 0 -6 -4
-9 -8z"/>
<path d="M1873 3165 c-58 -13 -189 -73 -179 -82 2 -2 27 7 55 21 64 33 152 56
213 56 26 0 50 5 53 10 9 14 -67 11 -142 -5z"/>
<path d="M4918 3168 c-16 -5 -28 -15 -28 -21 0 -7 15 -62 34 -124 21 -72 28
-109 20 -106 -7 2 -25 -2 -42 -11 -29 -15 -52 -7 -52 17 0 5 -21 46 -47 92
l-46 84 -31 -16 c-17 -8 -33 -17 -35 -19 -2 -2 8 -22 22 -46 13 -24 43 -80 66
-125 23 -45 46 -85 50 -87 4 -3 21 2 37 11 16 9 61 28 99 44 66 27 73 33 64
68 -6 24 31 25 48 1 12 -17 21 -20 42 -15 14 3 30 10 34 15 5 4 -22 48 -59 96
-133 174 -120 163 -176 142z m136 -118 c68 -87 83 -112 71 -116 -9 -4 -26 3
-40 16 -18 17 -30 20 -55 15 -26 -6 -30 -10 -24 -28 3 -12 7 -26 8 -31 2 -15
-34 -19 -38 -4 -16 55 -66 238 -66 242 0 2 10 7 23 9 12 2 25 5 28 6 3 0 45
-49 93 -109z m-249 -77 c27 -54 50 -100 52 -102 1 -2 21 4 43 14 27 12 44 15
51 8 6 -6 -11 -20 -53 -41 -34 -17 -63 -30 -64 -29 -67 120 -121 237 -111 240
27 12 35 3 82 -90z"/>
<path d="M4973 3048 c11 -35 21 -64 23 -66 1 -2 14 3 28 10 l26 14 -41 49
c-23 28 -44 51 -49 53 -4 1 2 -26 13 -60z m40 -41 c-4 -6 -10 -2 -14 9 -12 31
-9 40 6 20 8 -10 11 -24 8 -29z"/>
<path d="M3906 3158 c3 -5 10 -6 15 -3 13 9 11 12 -6 12 -8 0 -12 -4 -9 -9z"/>
<path d="M4020 3155 c-11 -13 -10 -14 4 -9 9 3 16 10 16 15 0 13 -6 11 -20 -6z"/>
<path d="M1645 3150 c-3 -6 1 -7 9 -4 18 7 21 14 7 14 -6 0 -13 -4 -16 -10z"/>
<path d="M4785 3131 c-3 -5 -2 -12 3 -15 5 -3 9 1 9 9 0 17 -3 19 -12 6z"/>
<path d="M3810 3096 c0 -2 7 -7 16 -10 8 -3 12 -2 9 4 -6 10 -25 14 -25 6z"/>
<path d="M1775 3079 c-4 -6 -4 -13 -1 -16 3 -4 6 -1 6 7 0 10 4 10 18 -1 15
-13 16 -12 3 4 -16 20 -18 20 -26 6z"/>
<path d="M4605 3008 c-43 -23 -85 -53 -85 -61 0 -8 126 -246 135 -255 7 -7 94
58 115 85 30 38 22 89 -20 124 -16 14 -30 35 -30 46 0 55 -64 89 -115 61z m90
-38 c12 -23 13 -35 5 -50 -9 -18 -8 -20 15 -20 31 0 61 -54 52 -92 -7 -28 -94
-95 -107 -82 -9 10 -120 212 -120 219 0 2 19 15 43 29 58 35 92 34 112 -4z"/>
<path d="M4606 2957 c-17 -13 -17 -15 -2 -45 19 -36 24 -38 52 -18 17 14 18
17 4 42 -18 34 -30 38 -54 21z m38 -24 c10 -25 -10 -39 -23 -15 -10 19 -6 32
10 32 4 0 10 -8 13 -17z"/>
<path d="M4656 2857 c-17 -12 -17 -14 1 -47 10 -19 19 -37 21 -39 1 -2 13 2
27 9 28 15 32 45 11 73 -16 20 -36 22 -60 4z m50 -22 c4 -8 3 -23 -1 -32 -6
-16 -8 -15 -25 7 -10 13 -16 28 -14 32 9 13 34 9 40 -7z"/>
<path d="M3573 2995 c0 -8 4 -12 9 -9 5 3 6 10 3 15 -9 13 -12 11 -12 -6z"/>
<path d="M5339 2902 c-14 -6 -8 -25 40 -132 31 -69 60 -131 64 -138 10 -14
137 -17 137 -2 0 5 -5 21 -12 35 -9 20 -18 25 -49 25 l-37 0 -42 105 c-23 58
-46 105 -50 105 -5 0 -14 2 -22 4 -7 3 -20 2 -29 -2z m82 -107 c50 -120 52
-123 95 -127 62 -5 55 -28 -9 -28 l-54 0 -52 118 c-28 64 -51 121 -51 125 0 5
8 7 17 5 10 -2 31 -37 54 -93z"/>
<path d="M5172 2881 c-10 -6 1 -39 48 -141 33 -74 62 -135 64 -137 6 -6 136
18 140 26 3 4 -1 18 -7 31 -11 21 -18 24 -53 22 -40 -3 -41 -3 -59 45 -39 105
-74 163 -98 163 -12 0 -28 -4 -35 -9z m97 -117 l45 -105 44 3 c29 2 47 -1 49
-9 4 -12 -8 -16 -78 -28 l-35 -5 -55 116 c-30 65 -55 121 -57 126 -2 4 7 8 20
8 20 0 29 -14 67 -106z"/>
<path d="M5093 2860 c-13 -5 -23 -11 -23 -13 0 -3 20 -48 45 -101 49 -105 52
-116 33 -116 -7 0 -33 44 -57 98 -24 53 -47 100 -50 105 -9 9 -71 -12 -71 -24
0 -17 97 -215 114 -231 37 -37 140 -12 152 37 7 27 1 44 -57 173 -38 82 -45
88 -86 72z m83 -110 c24 -52 43 -105 43 -117 1 -31 -39 -55 -86 -51 -38 3 -38
4 -91 112 -42 85 -51 111 -40 117 7 5 17 8 21 6 4 -1 28 -45 51 -97 46 -98 62
-118 90 -107 24 10 20 28 -28 131 -24 52 -41 97 -38 101 18 17 40 -10 78 -95z"/>
<path d="M3503 2841 c0 -11 5 -18 9 -15 4 3 5 11 1 19 -7 21 -12 19 -10 -4z"/>
<path d="M2506 2773 c-6 -14 -5 -15 5 -6 7 7 10 15 7 18 -3 3 -9 -2 -12 -12z"/>
<path d="M4833 2750 l-52 -30 55 -117 c31 -65 59 -126 61 -135 3 -10 7 -18 9
-18 20 0 127 65 140 85 15 24 15 29 -1 70 -9 25 -25 51 -36 59 -11 7 -19 17
-18 22 8 44 -34 94 -78 94 -15 0 -51 -14 -80 -30z m122 -10 c11 -13 19 -35 18
-55 -1 -24 4 -34 17 -38 24 -6 53 -64 46 -92 -4 -14 -25 -33 -60 -51 -30 -16
-57 -26 -59 -24 -5 5 -104 215 -108 228 -3 10 82 51 107 52 11 0 29 -9 39 -20z"/>
<path d="M4875 2717 c-16 -13 -17 -17 -4 -45 15 -35 21 -37 50 -22 24 13 25
42 1 63 -22 20 -23 21 -47 4z m43 -35 c2 -14 -2 -22 -11 -22 -15 0 -29 34 -19
45 11 11 27 -2 30 -23z"/>
<path d="M4918 2620 c-15 -9 -15 -13 3 -50 21 -43 34 -48 64 -26 19 14 19 16
2 50 -17 37 -37 44 -69 26z m53 -31 c16 -31 -7 -52 -27 -25 -8 11 -14 26 -14
33 0 21 28 15 41 -8z"/>
<path d="M4565 2749 c-4 -6 -5 -12 -2 -15 2 -3 7 2 10 11 7 17 1 20 -8 4z"/>
<path d="M3409 2713 l-24 -28 28 24 c25 23 32 31 24 31 -2 0 -14 -12 -28 -27z"/>
<path d="M3406 2681 c-4 -5 -2 -12 3 -15 5 -4 12 -2 15 3 4 5 2 12 -3 15 -5 4
-12 2 -15 -3z"/>
<path d="M5613 2605 c0 -8 4 -12 9 -9 5 3 6 10 3 15 -9 13 -12 11 -12 -6z"/>
<path d="M4270 2516 c0 -16 61 -138 89 -179 17 -25 53 -70 81 -100 71 -78 81
-111 90 -322 5 -111 15 -205 25 -245 38 -143 144 -325 253 -434 l59 -59 6
-111 c5 -109 42 -318 91 -515 42 -167 47 -147 -42 -155 -98 -9 -357 -60 -466
-91 -101 -29 -253 -94 -353 -149 -89 -50 -227 -146 -220 -153 3 -2 49 25 103
62 122 84 258 151 396 199 203 70 601 137 710 121 39 -6 47 -12 84 -68 22 -34
59 -89 81 -122 22 -33 50 -87 63 -120 24 -64 40 -89 40 -64 -1 34 -62 152
-133 256 -42 62 -87 134 -101 161 -31 61 -71 217 -87 337 -27 208 17 503 106
709 9 21 13 42 8 47 -5 5 -9 1 -10 -9 0 -9 -12 -44 -26 -77 -32 -75 -71 -215
-89 -316 l-13 -75 -139 145 c-262 276 -335 450 -336 803 0 120 -22 185 -83
250 -63 65 -90 103 -137 193 -43 82 -50 93 -50 81z m661 -1417 l24 -20 -30 17
c-39 24 -40 24 -28 24 6 0 21 -9 34 -21z m36 -46 c3 -7 9 -10 14 -7 5 3 9 -4
9 -15 0 -12 6 -21 13 -21 8 0 8 -3 -2 -9 -12 -8 -13 -27 -3 -123 6 -62 13
-122 16 -133 2 -11 7 -41 10 -68 4 -26 11 -59 17 -73 5 -15 12 -44 14 -64 3
-21 12 -51 20 -66 8 -16 15 -37 15 -47 0 -16 -5 -17 -32 -12 -18 4 -33 8 -33
9 -3 9 -38 145 -40 156 -2 8 -11 51 -20 95 -29 135 -36 169 -39 190 -12 77
-28 184 -31 202 -2 12 -1 24 2 27 8 7 64 -26 70 -41z"/>
<path d="M3655 2419 c-44 -50 -85 -100 -91 -111 -8 -13 -10 -69 -6 -174 3 -94
1 -154 -5 -154 -17 0 -47 104 -47 165 0 80 26 154 76 209 40 46 45 76 12 76
-28 0 -125 -110 -158 -179 -29 -61 -31 -74 -31 -171 1 -125 18 -172 91 -250
54 -58 114 -84 194 -85 117 0 218 56 278 155 57 96 31 148 -35 70 -33 -39
-119 -90 -150 -90 -9 0 -13 17 -13 53 0 28 -7 137 -15 241 -8 104 -13 191 -11
193 2 3 28 -3 57 -11 29 -9 58 -16 65 -16 8 0 32 25 56 56 53 71 47 89 -33 85
-30 -1 -74 5 -98 13 -24 9 -46 16 -50 16 -3 0 -42 -41 -86 -91z m170 45 c28
-8 65 -11 84 -8 l34 7 -32 -47 c-36 -52 -48 -55 -130 -30 -29 8 -55 13 -58 11
-2 -3 1 -74 7 -158 6 -85 13 -205 17 -266 l6 -113 26 0 c45 0 125 45 164 91
39 46 48 40 21 -14 -56 -109 -148 -169 -262 -169 -76 0 -121 15 -170 57 -148
125 -146 374 4 535 54 57 83 69 34 13 -59 -66 -85 -137 -85 -228 0 -66 5 -90
27 -137 15 -32 31 -58 37 -58 5 0 17 19 26 43 13 36 14 62 7 172 l-9 130 86
97 c59 66 91 95 101 91 8 -3 37 -12 65 -19z"/>
<path d="M3670 2372 c-25 -31 -25 -33 -16 -152 10 -139 1 -177 -60 -249 -35
-40 -36 -43 -18 -57 27 -21 93 -51 133 -59 l34 -7 -6 38 c-3 22 -11 131 -17
244 -7 113 -15 220 -19 239 l-7 35 -24 -32z m25 -169 c4 -82 10 -187 14 -235
8 -98 7 -99 -56 -73 -65 27 -65 29 -16 103 l46 67 -7 143 c-3 82 -2 142 3 142
5 0 12 -66 16 -147z"/>
<path d="M2140 2472 c-38 -19 -80 -74 -80 -104 0 -29 31 -35 48 -10 17 26 37
27 86 7 20 -9 41 -13 46 -10 6 4 10 2 10 -4 0 -5 -6 -14 -13 -18 -21 -12 -49
-60 -56 -96 -6 -27 -12 -33 -49 -40 -61 -12 -102 -73 -71 -104 9 -9 18 -8 35
4 22 14 26 14 48 0 13 -9 26 -25 29 -36 4 -16 -2 -22 -29 -31 -40 -14 -64 -44
-64 -83 0 -33 27 -48 45 -24 15 21 45 22 45 2 0 -27 -27 -68 -74 -115 -63 -61
-75 -139 -25 -155 32 -10 52 14 46 56 -6 48 2 59 51 70 56 12 136 -5 196 -42
l49 -30 58 31 c32 17 91 39 131 48 l73 18 7 100 c4 54 5 113 1 129 -8 41 -40
84 -68 91 l-24 6 32 33 c68 70 73 166 13 230 -29 30 -40 35 -80 35 -57 0 -145
-40 -192 -87 -36 -36 -54 -98 -54 -191 0 -80 -17 -189 -35 -220 -16 -31 -19
-25 -5 12 5 14 14 92 20 173 12 178 27 217 101 264 66 43 65 61 -3 58 -35 -2
-72 4 -108 18 -87 32 -103 34 -140 15z m137 -37 c60 -21 80 -24 108 -16 37 10
50 -3 15 -14 -33 -11 -80 -55 -101 -98 -16 -31 -23 -72 -30 -181 -11 -163 -20
-204 -54 -244 -14 -17 -25 -33 -25 -36 0 -30 97 55 117 101 7 18 18 98 23 178
10 146 20 184 56 216 35 31 107 61 158 66 49 5 54 4 79 -26 55 -66 45 -143
-29 -210 -24 -23 -44 -44 -44 -46 0 -3 12 -5 26 -5 34 0 82 -51 86 -93 2 -18
1 -70 -2 -117 l-5 -85 -70 -18 c-38 -10 -93 -31 -121 -46 -51 -27 -52 -28 -75
-9 -41 31 -154 61 -204 54 -64 -10 -89 -34 -90 -86 0 -44 -20 -66 -31 -36 -11
30 6 67 60 125 59 64 71 89 62 127 -5 18 -13 24 -34 24 -15 0 -33 -5 -40 -12
-9 -9 -12 -7 -12 10 0 24 56 66 78 57 17 -6 16 66 -1 89 -14 20 -59 25 -89 12
-26 -12 -22 11 7 39 18 18 35 25 65 25 38 0 40 2 40 30 0 44 22 81 75 128 25
22 45 42 45 45 0 3 -16 0 -35 -5 -28 -9 -44 -7 -90 10 -31 12 -59 22 -61 22
-3 0 -16 -12 -29 -26 -20 -22 -25 -24 -25 -9 0 28 64 85 96 85 15 0 61 -11
101 -25z"/>
<path d="M2449 2352 l-32 -28 -13 -162 c-8 -96 -19 -173 -28 -190 -15 -28 -54
-68 -96 -95 l-24 -17 40 0 c23 0 63 -7 90 -15 27 -8 49 -15 50 -15 1 0 4 64 8
143 3 78 10 167 14 197 l7 55 5 -63 5 -63 42 36 c76 65 81 161 12 219 -38 32
-42 32 -80 -2z m78 -24 c41 -45 34 -134 -14 -166 -23 -14 -23 -14 -23 27 0 42
-21 64 -41 44 -5 -5 -15 -90 -21 -189 -6 -98 -12 -180 -13 -182 -2 -2 -23 2
-48 9 l-46 11 30 25 c48 41 58 73 69 210 12 162 18 194 37 216 22 23 45 22 70
-5z"/>
<path d="M2190 2146 c0 -2 8 -10 18 -17 15 -13 16 -12 3 4 -13 16 -21 21 -21
13z"/>
<path d="M2484 2085 c-35 -35 -29 -66 15 -78 53 -13 81 -2 81 33 0 32 -30 70
-55 70 -9 0 -27 -11 -41 -25z m71 -26 c9 -26 0 -36 -32 -37 -41 0 -54 25 -28
51 18 19 52 11 60 -14z"/>
<path d="M2464 1991 c-10 -10 -3 -62 9 -65 6 -3 33 -7 60 -10 l47 -6 0 39 0
39 -56 4 c-31 1 -58 1 -60 -1z m96 -39 c0 -14 -7 -17 -40 -14 -26 3 -40 9 -40
18 0 10 12 14 40 14 32 0 40 -4 40 -18z"/>
<path d="M2457 1895 c-12 -29 -8 -83 6 -88 8 -3 34 0 59 5 42 10 46 14 50 45
5 40 3 42 -60 50 -40 4 -50 2 -55 -12z m79 -11 c32 -8 19 -42 -20 -53 -38 -10
-46 -6 -46 23 0 36 17 43 66 30z"/>
<path d="M4350 2471 c0 -6 4 -13 10 -16 6 -3 7 1 4 9 -7 18 -14 21 -14 7z"/>
<path d="M5506 2472 c-3 -5 20 -68 51 -141 55 -129 57 -131 88 -131 17 0 34 2
37 5 3 3 -20 65 -52 138 -54 125 -59 132 -88 135 -16 2 -33 -1 -36 -6z m107
-131 c30 -72 44 -118 38 -124 -16 -16 -28 0 -61 85 -18 46 -42 100 -52 121
l-19 39 23 -4 c18 -2 31 -23 71 -117z"/>
<path d="M5607 2443 c9 -21 35 -83 58 -138 39 -96 43 -100 74 -103 30 -3 32
-2 26 20 -4 13 -14 36 -22 51 -7 15 -11 32 -8 37 6 10 -44 84 -52 77 -2 -2 12
-41 31 -86 29 -68 32 -81 18 -81 -12 0 -30 33 -62 112 -25 61 -46 115 -48 120
-2 4 5 8 16 8 12 0 30 -14 42 -31 12 -16 25 -28 27 -25 3 3 -6 21 -21 41 -22
28 -34 35 -61 35 l-34 0 16 -37z"/>
<path d="M4200 2463 c0 -17 55 -107 97 -160 33 -41 130 -119 138 -111 3 2 -18
21 -45 41 -54 40 -107 103 -157 188 -18 30 -32 48 -33 42z"/>
<path d="M5020 2460 c-9 -6 -10 -10 -3 -10 6 0 15 5 18 10 8 12 4 12 -15 0z"/>
<path d="M5387 2460 c-20 -4 -39 -9 -41 -11 -4 -4 29 -185 45 -251 11 -41 14
-43 54 -28 21 8 24 14 19 35 -5 22 -3 25 20 25 15 0 30 -8 36 -20 11 -21 64
-28 75 -10 6 9 -107 194 -148 242 -19 22 -27 24 -60 18z m101 -107 c34 -54 70
-108 79 -120 15 -22 14 -23 -10 -23 -17 0 -28 7 -32 20 -12 38 -93 21 -83 -18
6 -20 -17 -40 -30 -27 -5 5 -41 216 -42 242 0 6 10 14 23 16 12 2 24 5 27 6 3
0 33 -43 68 -96z"/>
<path d="M5410 2398 c0 -8 5 -40 11 -71 12 -58 25 -69 58 -48 11 7 6 21 -28
71 -22 34 -41 56 -41 48z m56 -106 c-9 -8 -26 10 -26 26 1 15 2 15 15 -2 8
-11 13 -21 11 -24z"/>
<path d="M5233 2423 c-27 -5 -28 -18 -8 -66 19 -45 19 -57 0 -57 -8 0 -24 22
-36 50 -12 28 -23 50 -25 50 -2 0 -19 -7 -37 -16 -33 -16 -34 -18 -21 -43 7
-14 31 -73 54 -131 23 -58 43 -107 45 -108 2 -2 20 1 40 8 39 13 40 21 9 82
-18 34 -18 44 1 51 10 5 20 -10 36 -52 l21 -58 39 10 c46 11 48 -1 -21 166
-48 115 -54 123 -97 114z m84 -133 c28 -65 48 -122 45 -125 -18 -18 -41 -1
-57 43 -23 61 -24 62 -62 48 l-31 -11 23 -57 c23 -56 23 -57 3 -64 -11 -3 -21
-4 -22 -2 -1 1 -23 55 -49 117 -34 86 -43 118 -35 128 18 22 25 15 48 -41 21
-53 22 -54 51 -43 33 13 35 21 14 71 -9 20 -13 41 -10 46 16 27 36 0 82 -110z"/>
<path d="M919 2418 c-4 -19 -9 -51 -6 -47 1 2 8 11 15 21 9 11 10 18 2 23 -5
3 -10 5 -11 3z"/>
<path d="M1787 2315 c-15 -57 -27 -118 -28 -137 -1 -33 -1 -33 -16 12 -8 25
-18 74 -22 110 l-8 65 -2 -57 c-1 -38 7 -80 23 -125 14 -37 36 -118 50 -180
14 -61 32 -128 39 -150 11 -33 10 -47 -9 -115 -46 -167 -127 -300 -255 -423
-112 -107 -382 -309 -406 -304 -5 1 -7 10 -5 21 5 30 -25 119 -58 172 -17 26
-34 46 -37 43 -3 -3 4 -19 16 -36 41 -56 61 -116 63 -187 5 -130 -64 -219
-290 -378 -62 -43 -115 -77 -117 -74 -2 2 -26 51 -53 108 -34 72 -67 125 -106
168 -31 35 -70 90 -87 124 -17 33 -33 58 -35 55 -11 -11 58 -127 120 -201 40
-48 74 -101 87 -135 11 -31 38 -86 60 -123 39 -64 40 -69 44 -173 3 -58 7
-110 10 -115 4 -6 -3 -10 -14 -10 -26 0 -51 -10 -51 -21 0 -5 11 -4 24 3 26
11 56 5 56 -12 0 -5 -13 -10 -29 -10 -17 0 -32 -4 -35 -9 -4 -5 11 -7 32 -4
l38 5 10 -63 c9 -54 9 -66 -4 -75 -13 -10 -14 -16 -2 -43 7 -17 17 -34 22 -37
5 -3 2 10 -6 29 -13 33 -12 47 4 47 4 0 15 -18 25 -40 10 -22 22 -40 27 -40 4
0 -3 22 -16 49 -14 27 -30 75 -36 107 -5 33 -17 84 -25 114 -8 30 -15 93 -15
140 -1 55 -6 94 -15 110 -8 14 -14 28 -15 32 0 4 48 40 107 80 130 88 243 193
268 248 18 41 18 41 64 35 131 -18 396 -82 596 -145 115 -36 204 -56 328 -75
23 -4 41 -13 44 -23 4 -9 26 -51 49 -92 24 -41 62 -129 85 -195 23 -66 57
-154 76 -195 38 -83 103 -190 117 -190 4 0 1 11 -8 25 -69 106 -122 220 -181
395 -18 52 -55 135 -83 184 -29 50 -55 106 -58 125 -4 19 -2 80 4 135 7 56 21
182 32 280 l21 179 -89 91 c-160 164 -241 308 -299 532 -43 168 -45 246 -10
377 13 48 21 89 18 92 -4 2 -19 -43 -34 -100z m89 -627 c18 -41 31 -63 67
-109 15 -20 27 -41 27 -45 0 -5 24 -34 53 -65 28 -31 65 -73 81 -93 16 -20 31
-35 33 -32 3 3 10 0 17 -6 17 -16 11 -117 -25 -393 -6 -44 -11 -110 -12 -147
-2 -61 -6 -73 -29 -69 -4 0 -26 3 -50 5 -48 5 -133 23 -163 36 -52 21 -83 31
-235 70 -25 6 -54 16 -65 20 -11 5 -37 12 -59 15 -21 3 -42 8 -47 11 -5 3 -19
7 -32 9 -22 5 -84 18 -167 36 -25 5 -61 10 -80 11 -19 1 -29 3 -22 6 6 2 12
14 12 27 0 16 9 26 30 35 17 7 27 17 23 24 -3 6 -3 8 2 4 4 -4 20 1 35 12 16
11 33 20 38 20 6 0 20 12 32 28 12 15 18 20 14 12 -8 -14 74 48 106 80 14 14
14 14 6 0 -6 -8 6 2 26 23 20 20 41 37 47 37 7 0 9 5 6 10 -3 6 -2 10 2 10 5
0 33 24 63 54 69 68 103 106 94 106 -4 0 3 11 16 25 13 14 20 25 16 25 -5 0
-3 7 4 15 17 20 69 127 70 143 0 6 5 12 10 12 6 0 10 13 10 28 0 52 24 57 46
10z m-226 -322 c0 -2 -8 -10 -17 -17 -16 -13 -17 -12 -4 4 13 16 21 21 21 13z"/>
<path d="M2703 2405 c0 -8 4 -12 9 -9 5 3 6 10 3 15 -9 13 -12 11 -12 -6z"/>
<path d="M3188 2406 c-21 -8 -49 -21 -63 -30 -31 -20 -32 -20 -38 5 -5 17 -10
19 -29 12 -27 -10 -99 -9 -185 2 -51 6 -67 5 -88 -9 -26 -17 -65 -84 -65 -111
0 -29 31 -29 53 -1 22 27 22 27 80 13 54 -12 57 -14 41 -27 -21 -18 -44 -71
-44 -103 0 -19 -7 -26 -29 -30 -45 -9 -91 -54 -91 -88 0 -36 24 -48 49 -25 24
22 48 20 61 -3 15 -30 12 -40 -15 -47 -34 -8 -65 -50 -65 -86 0 -38 25 -47 52
-18 14 14 24 18 30 12 16 -16 -4 -62 -55 -128 -56 -73 -67 -114 -38 -143 26
-26 33 -26 56 -1 15 17 16 24 6 46 -14 31 -4 47 43 71 42 22 157 13 213 -16
l43 -21 62 43 c53 36 108 62 176 83 9 2 12 36 12 121 0 136 -16 179 -70 190
-36 7 -37 14 -9 39 45 40 64 139 36 194 -11 22 -71 71 -86 70 -3 -1 -23 -7
-43 -14z m93 -42 c29 -31 37 -109 16 -150 -8 -16 -29 -45 -46 -64 l-32 -34 46
-13 c64 -19 75 -46 75 -178 0 -97 -1 -105 -19 -105 -25 0 -149 -64 -179 -93
l-23 -21 -64 22 c-105 38 -211 27 -258 -25 -13 -15 -15 -26 -8 -45 6 -15 5
-31 -1 -43 -10 -17 -12 -17 -24 -1 -17 24 -3 67 40 117 59 69 80 131 54 157
-17 17 -35 15 -58 -8 l-20 -20 0 20 c0 27 43 70 70 70 15 0 20 6 20 28 0 61
-50 90 -98 56 -20 -14 -22 -14 -22 4 0 27 42 62 84 69 34 5 36 8 36 42 0 43
27 90 75 133 20 17 34 33 31 35 -3 3 -21 -1 -42 -7 -29 -10 -48 -10 -92 1
l-55 13 -24 -30 c-24 -28 -24 -28 -18 -4 12 40 44 79 71 86 14 4 58 0 98 -8
60 -12 81 -12 115 -2 22 6 41 8 41 3 0 -5 -4 -9 -10 -9 -19 0 -83 -65 -98
-100 -10 -24 -17 -89 -22 -205 -7 -174 -14 -208 -58 -258 -28 -31 -5 -29 32 4
77 67 80 76 86 259 7 182 14 206 72 255 44 38 144 84 168 78 10 -3 28 -16 41
-29z m-239 -51 c-52 -49 -62 -90 -62 -243 0 -125 -11 -193 -32 -206 -8 -5 -9
-1 -3 12 5 10 11 94 15 185 7 184 19 221 83 267 44 31 44 28 -1 -15z"/>
<path d="M3113 2325 c-33 -23 -43 -75 -43 -224 0 -155 -12 -194 -81 -255 -44
-40 -49 -50 -18 -41 11 4 40 7 64 7 24 0 53 -3 64 -7 21 -6 21 -3 21 184 0
114 4 191 9 191 6 0 11 -24 13 -52 l3 -53 41 41 c24 24 44 56 48 75 20 100
-54 181 -121 134z m74 -27 c32 -30 32 -107 1 -151 l-23 -32 -5 40 c-4 35 -8
40 -30 40 l-25 0 -3 -182 -2 -183 -25 0 c-20 0 -25 5 -25 25 0 14 8 38 18 52
14 22 18 59 23 194 4 133 9 173 23 193 20 32 42 33 73 4z m-147 -453 c0 -8 -7
-15 -16 -15 -14 0 -14 3 -4 15 7 8 14 15 16 15 2 0 4 -7 4 -15z"/>
<path d="M3034 1995 c0 -49 1 -71 3 -48 2 23 2 64 0 90 -2 26 -3 8 -3 -42z"/>
<path d="M3152 2068 c-7 -7 -12 -26 -12 -44 0 -24 5 -33 21 -37 29 -8 89 3 90
17 3 23 -3 51 -13 64 -13 15 -70 16 -86 0z m76 -34 c3 -20 -18 -33 -55 -34
-14 0 -18 42 -6 54 15 15 58 1 61 -20z"/>
<path d="M3178 1973 c-36 -4 -38 -6 -38 -39 l0 -34 60 0 60 0 0 40 c0 44 5 42
-82 33z m62 -33 c0 -17 -7 -20 -40 -20 -44 0 -58 25 -17 33 48 9 57 7 57 -13z"/>
<path d="M3147 1883 c-4 -3 -7 -25 -7 -49 0 -53 17 -61 76 -34 40 19 44 24 44
55 l0 35 -53 0 c-30 0 -57 -3 -60 -7z m93 -31 c0 -11 -11 -24 -25 -30 -42 -19
-55 -15 -55 18 0 28 2 30 40 30 32 0 40 -4 40 -18z"/>
<path d="M3051 1790 c1 -8 5 -26 9 -40 l8 -25 1 25 c0 14 -4 32 -9 40 -9 13
-10 13 -9 0z"/>
<path d="M3476 2402 c-3 -5 1 -9 9 -9 8 0 12 4 9 9 -3 4 -7 8 -9 8 -2 0 -6 -4
-9 -8z"/>
<path d="M3949 2373 c-12 -16 -12 -17 2 -6 12 10 18 10 29 0 12 -10 12 -9 1 6
-7 9 -15 17 -16 17 -1 0 -9 -8 -16 -17z"/>
<path d="M4647 2328 c-53 -52 -112 -149 -105 -170 2 -5 14 14 28 43 13 30 50
80 82 113 32 33 56 62 53 64 -2 2 -29 -20 -58 -50z"/>
<path d="M990 2330 c25 -4 49 -4 55 1 5 5 -13 8 -45 8 l-55 -2 45 -7z"/>
<path d="M4439 2338 c-6 -21 -5 -37 2 -32 5 3 7 9 4 14 -3 4 1 11 7 13 10 4
10 6 1 6 -7 1 -13 0 -14 -1z"/>
<path d="M4978 2324 c-15 -8 -34 -28 -43 -43 -13 -26 -13 -34 0 -71 59 -167
91 -198 168 -161 59 29 74 58 58 112 -11 38 -15 40 -39 34 -41 -10 -53 -24
-42 -45 14 -26 12 -40 -4 -40 -18 0 -78 147 -64 156 6 4 19 -2 28 -14 16 -19
21 -20 49 -9 35 13 37 17 16 56 -22 44 -74 54 -127 25z m106 -26 c21 -29 20
-35 -4 -41 -13 -3 -24 1 -30 14 -12 22 -42 25 -58 6 -15 -17 49 -181 72 -185
27 -6 47 18 44 52 -4 44 28 49 37 6 8 -39 -12 -72 -55 -90 -50 -21 -73 -3
-108 82 -47 116 -47 114 -13 148 37 38 92 42 115 8z"/>
<path d="M1360 2275 c0 -3 28 -19 62 -36 95 -48 229 -134 271 -174 20 -20 37
-32 37 -27 0 28 -158 140 -289 207 -71 35 -81 39 -81 30z"/>
<path d="M857 2207 c3 -5 -1 -13 -8 -18 -10 -6 -10 -9 -2 -9 7 0 17 8 22 18 7
14 6 19 -4 19 -8 0 -11 -5 -8 -10z"/>
<path d="M1610 2203 c1 -10 123 -103 129 -97 2 2 -9 14 -24 26 -65 52 -105 79
-105 71z"/>
<path d="M2715 2190 c-4 -6 -11 -7 -17 -4 -7 4 -8 2 -4 -5 6 -9 11 -9 22 0 14
11 18 19 10 19 -3 0 -8 -5 -11 -10z"/>
<path d="M3335 2191 c-3 -5 -2 -12 3 -15 5 -3 9 1 9 9 0 17 -3 19 -12 6z"/>
<path d="M695 2060 c-3 -6 1 -7 9 -4 18 7 21 14 7 14 -6 0 -13 -4 -16 -10z"/>
<path d="M1652 2050 c2 -9 -3 -14 -14 -12 -9 1 -19 -1 -22 -6 -6 -10 42 -7 52
2 3 4 0 12 -7 19 -10 9 -12 9 -9 -3z"/>
<path d="M600 1986 c0 -2 8 -10 18 -17 15 -13 16 -12 3 4 -13 16 -21 21 -21
13z"/>
<path d="M3954 1798 c-19 -23 -19 -23 2 -6 16 14 23 15 34 5 12 -10 12 -9 1 6
-17 21 -14 21 -37 -5z"/>
<path d="M635 1727 c68 -37 220 -183 366 -351 52 -60 101 -112 109 -114 8 -2
-8 20 -36 49 -27 30 -77 85 -110 124 -114 135 -208 226 -282 275 -40 28 -81
50 -90 50 -10 0 10 -15 43 -33z"/>
<path d="M5720 1757 c0 -5 15 -27 34 -50 57 -71 71 -152 40 -225 -29 -69 -34
-82 -26 -82 10 0 62 131 62 156 0 47 -32 121 -69 164 -22 25 -40 41 -41 37z"/>
<path d="M5683 1725 c0 -7 6 -11 14 -8 7 3 13 6 13 8 0 2 -6 5 -13 8 -8 3 -14
-1 -14 -8z"/>
<path d="M767 1689 c7 -7 15 -10 18 -7 3 3 -2 9 -12 12 -14 6 -15 5 -6 -5z"/>
<path d="M1950 1685 c-11 -13 -10 -14 4 -9 9 3 16 10 16 15 0 13 -6 11 -20 -6z"/>
<path d="M3086 1660 c3 -14 10 -29 15 -34 14 -16 10 6 -7 34 l-15 25 7 -25z"/>
<path d="M1960 1661 c0 -6 4 -13 10 -16 6 -3 7 1 4 9 -7 18 -14 21 -14 7z"/>
<path d="M1990 1666 c0 -2 8 -10 18 -17 15 -13 16 -12 3 4 -13 16 -21 21 -21
13z"/>
<path d="M2840 1666 c0 -2 8 -10 18 -17 15 -13 16 -12 3 4 -13 16 -21 21 -21
13z"/>
<path d="M640 1651 c0 -6 5 -11 11 -11 5 0 7 -5 3 -12 -4 -7 -3 -8 4 -4 18 11
66 -19 134 -83 56 -52 101 -111 178 -231 37 -59 12 1 -33 75 -51 86 -174 211
-244 248 -29 16 -53 23 -53 18z"/>
<path d="M2120 1640 c-9 -6 -10 -10 -3 -10 6 0 15 5 18 10 8 12 4 12 -15 0z"/>
<path d="M166 1612 c-2 -4 -1 -14 4 -22 7 -11 9 -9 7 8 -1 24 -3 26 -11 14z"/>
<path d="M5072 1553 c-11 -21 -25 -65 -31 -98 -13 -67 -15 -192 -3 -198 4 -3
7 41 8 96 1 86 5 112 27 167 30 72 29 92 -1 33z"/>
<path d="M2837 1569 c7 -7 15 -10 18 -7 3 3 -2 9 -12 12 -14 6 -15 5 -6 -5z"/>
<path d="M699 1558 c-6 -20 -6 -39 0 -42 4 -3 7 6 7 20 0 20 -4 32 -7 22z"/>
<path d="M372 1516 c-42 -79 -92 -189 -88 -193 2 -2 38 -7 79 -10 74 -6 76 -5
106 25 21 20 31 40 31 60 0 17 6 32 15 36 8 3 20 18 26 33 15 40 -13 63 -90
72 -62 7 -62 7 -79 -23z m123 0 c19 -8 35 -22 35 -30 0 -18 -35 -56 -50 -56
-7 0 -8 -6 -1 -17 11 -21 -10 -67 -34 -77 -26 -10 -147 -7 -143 3 2 5 23 50
48 100 43 87 46 91 78 91 18 0 48 -7 67 -14z"/>
<path d="M413 1480 c-13 -34 -4 -45 32 -36 28 7 44 44 24 57 -26 16 -45 9 -56
-21z m45 -2 c-3 -7 -12 -14 -21 -16 -12 -2 -15 1 -11 12 7 19 38 22 32 4z"/>
<path d="M382 1416 c-4 -6 -13 -23 -20 -38 -11 -27 -11 -28 23 -28 34 0 55 20
55 53 0 18 -47 28 -58 13z m38 -20 c0 -16 -28 -42 -36 -33 -3 3 -3 15 1 26 7
23 35 29 35 7z"/>
<path d="M647 1537 c-3 -8 3 -14 16 -15 12 0 17 2 12 6 -6 4 -13 11 -16 15 -4
4 -9 2 -12 -6z"/>
<path d="M263 1530 c-18 -4 -43 -14 -55 -22 -24 -16 -126 -213 -116 -223 11
-12 145 35 171 59 14 13 29 37 33 53 3 15 15 47 27 70 18 35 19 44 8 57 -15
17 -20 18 -68 6z m57 -29 c0 -10 -11 -29 -24 -42 -18 -18 -22 -27 -14 -37 8
-9 3 -22 -19 -49 -22 -28 -44 -42 -88 -55 -33 -9 -61 -15 -63 -13 -2 2 18 45
45 97 42 80 53 95 83 105 54 18 80 16 80 -6z"/>
<path d="M247 1493 c-20 -5 -54 -63 -37 -63 30 0 70 33 70 58 0 12 -3 13 -33
5z m13 -22 c0 -5 -7 -11 -15 -15 -15 -5 -20 5 -8 17 9 10 23 9 23 -2z"/>
<path d="M212 1412 c-14 -2 -30 -18 -42 -43 -23 -44 -22 -44 25 -25 23 10 37
24 41 41 8 30 6 32 -24 27z m12 -27 c-8 -19 -44 -40 -44 -26 0 12 28 41 40 41
5 0 7 -7 4 -15z"/>
<path d="M2960 1509 c-87 -21 -447 -105 -535 -125 -33 -7 -96 -14 -140 -15
-74 -1 -77 -2 -40 -11 22 -5 65 -7 95 -4 75 8 687 150 699 162 12 11 -11 9
-79 -7z"/>
<path d="M3152 1517 c6 -17 150 -102 217 -128 67 -26 405 -79 511 -80 72 -2
81 1 220 64 80 36 169 73 198 82 29 10 50 20 48 23 -9 8 -134 -38 -261 -96
-117 -55 -122 -56 -205 -56 -90 1 -344 35 -445 60 -69 17 -162 60 -236 109
-28 19 -49 29 -47 22z"/>
<path d="M3232 1521 c-11 -6 -10 -10 4 -15 9 -3 19 -4 22 -1 3 3 0 5 -7 5 -7
0 -9 5 -6 10 7 12 4 12 -13 1z"/>
<path d="M576 1477 c-10 -7 -33 -44 -51 -82 -30 -64 -32 -72 -19 -96 17 -33
86 -62 126 -54 16 4 36 18 45 32 17 25 16 26 -12 49 l-30 24 -20 -24 c-14 -17
-25 -22 -34 -17 -11 7 -7 20 18 65 31 53 52 68 66 47 3 -5 1 -12 -5 -16 -18
-11 -11 -24 22 -41 30 -15 32 -15 45 2 17 24 16 45 -3 72 -32 46 -110 67 -148
39z m119 -32 c37 -36 32 -85 -5 -65 -12 6 -16 17 -13 34 4 18 0 26 -17 31 -27
9 -43 -5 -81 -72 -25 -43 -29 -57 -19 -68 17 -21 46 -19 62 4 12 17 16 17 32
5 19 -13 19 -14 1 -34 -10 -11 -30 -20 -44 -20 -30 0 -89 33 -97 54 -6 15 24
81 58 129 26 37 88 38 123 2z"/>
<path d="M806 1477 c3 -10 9 -15 12 -12 3 3 0 11 -7 18 -10 9 -11 8 -5 -6z"/>
<path d="M2124 1461 c3 -4 16 -6 29 -4 31 6 87 -22 87 -43 0 -11 -5 -14 -17
-10 -9 4 -20 2 -23 -5 -12 -19 -49 -1 -43 21 3 11 0 20 -6 20 -16 0 -7 -41 13
-55 13 -10 24 -10 53 0 48 16 51 29 17 60 -20 19 -38 25 -71 25 -24 0 -42 -4
-39 -9z"/>
<path d="M2270 1450 c-11 -7 -11 -10 -2 -10 8 0 10 -5 6 -12 -4 -7 -3 -9 1 -5
7 6 17 37 12 37 -1 0 -9 -5 -17 -10z"/>
<path d="M5820 1446 c0 -7 9 -35 19 -62 11 -27 22 -58 25 -68 4 -10 9 -16 12
-13 6 6 -45 157 -52 157 -2 0 -4 -6 -4 -14z"/>
<path d="M4317 1433 c-43 -8 -76 -18 -73 -20 8 -8 159 18 171 28 12 12 -2 10
-98 -8z"/>
<path d="M3207 1423 c3 -7 6 -13 8 -13 2 0 5 6 8 13 3 8 -1 14 -8 14 -7 0 -11
-6 -8 -14z"/>
<path d="M3853 1414 c-18 -9 -33 -23 -33 -31 0 -11 6 -10 25 6 34 26 75 34
110 21 31 -12 48 -4 25 10 -23 15 -92 11 -127 -6z"/>
<path d="M5886 1415 c4 -8 10 -15 14 -15 4 0 24 -23 44 -52 34 -50 49 -57 23
-12 -14 25 -74 94 -81 94 -3 0 -3 -7 0 -15z"/>
<path d="M3944 1363 c-19 -26 -20 -26 -52 -9 -19 10 -39 15 -45 13 -16 -5 46
-37 72 -37 11 0 28 11 37 25 23 35 13 41 -12 8z"/>
<path d="M890 1341 c0 -5 7 -12 16 -15 14 -5 15 -4 4 9 -14 17 -20 19 -20 6z"/>
<path d="M4670 1325 c13 -14 26 -25 28 -25 3 0 -5 11 -18 25 -13 14 -26 25
-28 25 -3 0 5 -11 18 -25z"/>
<path d="M4076 1331 c-4 -5 -2 -12 3 -15 5 -4 12 -2 15 3 4 5 2 12 -3 15 -5 4
-12 2 -15 -3z"/>
<path d="M4846 1288 c3 -5 10 -6 15 -3 13 9 11 12 -6 12 -8 0 -12 -4 -9 -9z"/>
<path d="M4859 1263 c-13 -16 -12 -17 4 -4 16 13 21 21 13 21 -2 0 -10 -8 -17
-17z"/>
<path d="M271 1261 c-7 -5 11 -10 42 -14 65 -6 124 -34 191 -90 30 -25 44 -33
38 -20 -34 63 -227 151 -271 124z"/>
<path d="M684 1232 c4 -3 14 -7 22 -8 9 -1 13 0 10 4 -4 3 -14 7 -22 8 -9 1
-13 0 -10 -4z"/>
<path d="M4933 1193 c1 -17 4 -19 14 -11 15 12 18 22 4 14 -5 -4 -11 0 -14 6
-3 7 -4 3 -4 -9z"/>
<path d="M2231 1154 c0 -11 3 -14 6 -6 3 7 2 16 -1 19 -3 4 -6 -2 -5 -13z"/>
<path d="M406 1148 c3 -4 11 -5 19 -1 21 7 19 12 -4 10 -11 0 -18 -5 -15 -9z"/>
<path d="M536 1092 c-3 -5 1 -9 9 -9 8 0 12 4 9 9 -3 4 -7 8 -9 8 -2 0 -6 -4
-9 -8z"/>
<path d="M31 1021 c-19 -15 -32 -32 -30 -37 2 -5 22 8 44 28 47 44 36 51 -14
9z"/>
<path d="M535 940 c10 -11 20 -20 23 -20 3 0 -3 9 -13 20 -10 11 -20 20 -23
20 -3 0 3 -9 13 -20z"/>
<path d="M64 929 c-3 -6 -2 -15 3 -20 5 -5 9 -1 9 11 0 23 -2 24 -12 9z"/>
<path d="M609 887 c7 -7 7 -15 1 -22 -7 -9 -6 -16 4 -24 10 -8 16 -9 21 -1 4
6 3 9 -2 8 -7 -3 -15 7 -12 15 7 22 4 34 -7 34 -10 0 -11 -4 -5 -10z"/>
<path d="M485 841 c-3 -5 -2 -12 3 -15 5 -3 9 1 9 9 0 17 -3 19 -12 6z"/>
<path d="M1089 773 l-24 -28 28 24 c15 14 27 26 27 28 0 8 -8 1 -31 -24z"/>
<path d="M310 712 c-19 -9 -39 -29 -44 -43 -10 -28 -1 -79 13 -79 5 0 4 13 -2
30 -17 44 15 84 72 88 23 2 39 7 36 13 -9 14 -36 11 -75 -9z"/>
<path d="M85 623 c-43 -23 -56 -44 -50 -78 8 -46 24 -53 19 -9 -6 45 -2 52 46
82 40 25 29 29 -15 5z"/>
<path d="M544 610 c15 -51 18 -117 7 -124 -7 -4 -11 1 -11 13 0 11 -5 23 -12
27 -8 5 -9 0 -3 -17 4 -13 16 -67 27 -119 38 -191 60 -276 85 -332 14 -32 30
-58 35 -58 4 0 -1 18 -11 39 -48 94 -95 321 -95 468 -1 73 -5 106 -15 115 -12
11 -13 9 -7 -12z"/>
<path d="M627 613 c-4 -3 -7 -21 -7 -40 0 -18 -9 -60 -21 -94 -12 -33 -19 -63
-16 -65 8 -9 46 101 53 155 6 49 5 58 -9 44z"/>
<path d="M253 450 c14 -25 40 -97 57 -160 28 -105 78 -225 115 -274 26 -34 27
-9 2 31 -50 78 -77 143 -102 243 -28 109 -52 167 -81 191 -12 10 -10 0 9 -31z"/>
<path d="M626 427 c3 -10 9 -15 12 -12 3 3 0 11 -7 18 -10 9 -11 8 -5 -6z"/>
<path d="M5185 411 c-3 -5 -2 -12 3 -15 5 -3 9 1 9 9 0 17 -3 19 -12 6z"/>
<path d="M27 380 c4 -9 20 -34 36 -56 15 -22 41 -87 57 -144 28 -97 69 -180
89 -180 5 0 -6 25 -24 56 -19 31 -38 77 -44 103 -18 83 -50 157 -87 197 -19
21 -32 32 -27 24z"/>
<path d="M2823 344 c-12 -3 -27 -12 -33 -20 -15 -17 -15 -17 35 1 56 20 109
18 157 -5 49 -23 62 -19 22 6 -27 18 -132 28 -181 18z"/>
<path d="M117 334 c-9 -10 12 -46 24 -39 5 4 9 12 9 18 0 7 -4 6 -10 -3 -9
-13 -10 -13 -11 0 -1 8 -1 18 0 23 1 9 -4 9 -12 1z"/>
<path d="M5227 329 c7 -7 15 -10 18 -7 3 3 -2 9 -12 12 -14 6 -15 5 -6 -5z"/>
<path d="M2846 297 c12 -31 92 -48 124 -26 11 7 5 8 -22 3 -29 -5 -45 -1 -73
16 -24 15 -33 17 -29 7z"/>
<path d="M428 253 c-21 -8 -38 -19 -38 -24 0 -5 13 -3 30 6 16 8 36 15 45 15
8 0 15 5 15 10 0 13 -7 12 -52 -7z"/>
<path d="M437 209 c-22 -11 -37 -23 -34 -25 3 -3 27 6 54 20 26 14 41 25 33
25 -8 0 -32 -9 -53 -20z"/>
<path d="M4350 216 c0 -2 7 -7 16 -10 8 -3 12 -2 9 4 -6 10 -25 14 -25 6z"/>
<path d="M455 169 c-22 -10 -32 -19 -22 -19 18 0 77 27 77 35 0 8 -13 4 -55
-16z"/>
<path d="M5327 179 c7 -9 11 -18 8 -21 -3 -2 1 -5 8 -5 8 0 14 6 14 14 0 7 -3
11 -5 8 -3 -3 -12 1 -21 8 -14 10 -14 10 -4 -4z"/>
<path d="M280 149 c0 -5 5 -7 10 -4 6 3 10 8 10 11 0 2 -4 4 -10 4 -5 0 -10
-5 -10 -11z"/>
<path d="M243 114 c-17 -7 -35 -19 -39 -25 -4 -6 -3 -10 2 -7 5 2 24 10 42 17
17 7 32 17 32 22 0 5 -1 9 -2 8 -2 0 -17 -7 -35 -15z"/>
<path d="M24 92 c3 -5 0 -13 -6 -15 -9 -4 -10 -6 -1 -6 17 -1 25 16 12 25 -7
4 -9 3 -5 -4z"/>
<path d="M261 74 c-18 -8 -31 -17 -28 -20 3 -3 25 3 49 14 49 23 31 28 -21 6z"/>
<path d="M95 70 c-3 -5 -1 -10 4 -10 6 0 11 5 11 10 0 6 -2 10 -4 10 -3 0 -8
-4 -11 -10z"/>
<path d="M0 35 c0 -15 18 -40 24 -34 3 3 -1 14 -9 25 -8 10 -14 15 -15 9z"/>
</g>
</svg>
