<svg xmlns="http://www.w3.org/2000/svg" viewBox="0 0 48 48" fill="none">
  <g fill="#f5b301">
    <!-- charging bull mark: two flowing strokes forming head + horns -->
    <path d="M21.6 22.4c1.95 4.38 5.16 9.15 8.46 12.4-1.42.2-3.05.29-4.93.29C6.9 35.09 1.3 15.6 1.3 8.2c0-2.02.48-4.4.48-4.4C6.76 14.8 12.7 22.0 21.06 24.3c.35.09.7.16 1.06.2-.18-.7-.35-1.4-.52-2.1z"/>
    <path d="M48 34c0 4.2-4.1 7.5-8.7 7.5-6.3 0-10.9-4.1-15.5-13.3-2.1-4.2-4.1-12-4.1-16.8 0-3.2.6-4.8.6-4.8 2.95 7.1 4.35 9.4 9.1 15.7 3.7 4.9 7.5 8.0 12.6 10.0.5.2 1.1-.05 1.28-.55.18-.55-.12-1.15-.68-1.34-2.42-.8-4.65-2.3-6.5-3.9 1.1-.1 2.35-.16 3.5-.16 4.95 0 8.5 3.28 8.5 7.8z"/>
  </g>
</svg>
